<mxfile host="app.diagrams.net" modified="2024-04-04T09:12:56.830Z" agent="Mozilla/5.0 (Macintosh; Intel Mac OS X 10_15_7) AppleWebKit/537.36 (KHTML, like Gecko) Chrome/123.0.0.0 Safari/537.36" version="24.0.1" etag="rI955q7TDpc9sQRlfOr3" type="github">
  <diagram name="Page-1" id="d_9S2hyFASc7YHGDYdhy">
    <mxGraphModel>
      <root>
        <mxCell id="0" />
        <mxCell id="1" parent="0" />
      </root>
    </mxGraphModel>
  </diagram>
</mxfile>
